<svg width="41" height="48" viewBox="0 0 41 48" fill="none" xmlns="http://www.w3.org/2000/svg">
<path d="M20.5 6.74141C22.0067 6.74141 23.228 5.52003 23.228 4.01337C23.228 2.50672 22.0067 1.28534 20.5 1.28534C18.9934 1.28534 17.772 2.50672 17.772 4.01337C17.772 5.52003 18.9934 6.74141 20.5 6.74141Z" stroke="#333333" stroke-miterlimit="10"/>
<path d="M20.5002 6.74133V9.46937" stroke="#333333" stroke-miterlimit="10"/>
<path d="M32.2641 4.98778C31.317 5.1134 30.404 5.42488 29.5777 5.90442C28.7513 6.38397 28.0281 7.02213 27.4491 7.78214L39.0102 16.6135C39.882 15.4698 40.3954 14.0934 40.4856 12.6581C40.5758 11.2229 40.2389 9.7931 39.5171 8.54926C38.7953 7.30542 37.7212 6.30332 36.4304 5.66945C35.1395 5.03557 33.6896 4.79837 32.2641 4.98778V4.98778Z" stroke="#333333" stroke-miterlimit="10"/>
<path d="M8.73587 4.98778C9.6831 5.11336 10.5961 5.42488 11.4226 5.90442C12.2491 6.38397 12.9727 7.02209 13.5518 7.78214L1.98978 16.6135C1.11796 15.4698 0.604539 14.0934 0.514336 12.6581C0.424133 11.2229 0.761107 9.7931 1.48287 8.54926C2.20463 7.30542 3.27875 6.30332 4.5696 5.66945C5.86045 5.03557 7.31031 4.79837 8.73587 4.98778Z" stroke="#333333" stroke-miterlimit="10"/>
<path d="M37.5542 30.4219C39.0825 21.0033 32.6862 12.1291 23.2677 10.6007C13.8491 9.07238 4.97486 15.4687 3.44651 24.8873C1.91817 34.3058 8.31447 43.1801 17.733 44.7084C27.1516 46.2368 36.0259 39.8405 37.5542 30.4219Z" stroke="#333333" stroke-miterlimit="10"/>
<path d="M20.5 41.2945C28.0329 41.2945 34.1395 35.1879 34.1395 27.655C34.1395 20.1221 28.0329 14.0154 20.5 14.0154C12.9671 14.0154 6.86047 20.1221 6.86047 27.655C6.86047 35.1879 12.9671 41.2945 20.5 41.2945Z" stroke="#333333" stroke-miterlimit="10"/>
<path d="M17.772 18.5623L20.5 27.6551" stroke="#333333" stroke-miterlimit="10"/>
<path d="M30.5024 33.1112L20.5002 27.6551" stroke="#333333" stroke-miterlimit="10"/>
<path d="M9.5885 29.4738L20.5 27.6551" stroke="#333333" stroke-miterlimit="10"/>
<path d="M31.351 41.0898C30.4237 41.8371 29.4214 42.4863 28.3602 43.0269C28.6736 43.4513 29.0181 43.852 29.3907 44.2255C31.1656 46.001 33.1809 46.8659 33.8912 46.1543C34.6016 45.4427 33.738 43.4288 31.9592 41.6533C31.7615 41.4524 31.5565 41.2669 31.351 41.0898Z" stroke="#333333" stroke-miterlimit="10"/>
<path d="M9.03778 41.6533C7.26223 43.4288 6.39757 45.444 7.1092 46.1543C7.82083 46.8646 9.83451 46.001 11.6101 44.2255C11.9828 43.8521 12.3273 43.4514 12.6405 43.0269C11.5794 42.4862 10.5771 41.8371 9.64971 41.0898C9.44363 41.2669 9.23742 41.4524 9.03778 41.6533Z" stroke="#333333" stroke-miterlimit="10"/>
<path d="M15.954 1C15.3609 1.89307 15.0446 2.94125 15.0446 4.0133C15.0446 5.08535 15.3609 6.13362 15.954 7.02669" stroke="#333333" stroke-miterlimit="10"/>
<path d="M25.0469 7.02669C25.6398 6.13356 25.956 5.08532 25.956 4.0133C25.956 2.94129 25.6398 1.89313 25.0469 1" stroke="#333333" stroke-miterlimit="10"/>
</svg>
