<svg width="59" height="54" viewBox="0 0 59 54" fill="none" xmlns="http://www.w3.org/2000/svg">
<path d="M18.6531 44.3619C18.6531 43.9383 18.8214 43.5319 19.1209 43.2324C19.4205 42.9328 19.8268 42.7645 20.2505 42.7645" stroke="#333333" stroke-width="1.5" stroke-miterlimit="10"/>
<path d="M4.26941 45.9602L22.2594 52.3847C25.1017 53.4005 28.1983 53.458 31.0764 52.5484L57 44.362C56.0751 42.9748 54.7292 41.9212 53.1605 41.3563C51.5918 40.7915 49.8832 40.7452 48.2863 41.2244L37.8266 44.362L31.4354 42.7646" stroke="#333333" stroke-width="1.5" stroke-miterlimit="10"/>
<path d="M1 38.3974C2.69207 36.4413 4.883 34.9809 7.33948 34.1716C10.5096 33.1151 20.8319 34.2668 25.0164 36.3591L25.0443 36.3727H32.8621C33.64 36.3555 34.399 36.6124 35.0065 37.0986C35.614 37.5848 36.0311 38.2692 36.1847 39.032C36.2626 39.4906 36.2394 39.9608 36.1169 40.4095C35.9944 40.8583 35.7755 41.275 35.4754 41.6304C35.1753 41.9859 34.8013 42.2716 34.3794 42.4676C33.9576 42.6636 33.498 42.7652 33.0328 42.7654H20.2505" stroke="#333333" stroke-width="1.5" stroke-miterlimit="10"/>
<path d="M29.8577 6.96387H24.7656C24.5193 6.96387 24.2831 7.06175 24.1089 7.23591C23.9347 7.41007 23.8369 7.64626 23.8369 7.89256V8.02078C23.8369 8.26707 23.9347 8.50331 24.1089 8.67747C24.2831 8.85163 24.5193 8.94946 24.7656 8.94946H29.8577C30.104 8.94946 30.3402 8.85163 30.5144 8.67747C30.6885 8.50331 30.7864 8.26707 30.7864 8.02078V7.89256C30.7864 7.64626 30.6885 7.41007 30.5144 7.23591C30.3402 7.06175 30.104 6.96387 29.8577 6.96387V6.96387Z" stroke="#333333" stroke-width="1.5" stroke-miterlimit="10"/>
<path d="M29.6703 2.78163C28.9886 2.27411 28.1615 2 27.3117 2C26.4618 2 25.6346 2.27411 24.953 2.78163L22.3475 2L23.5502 4.70556L24.333 6.96389H30.2894L31.0723 4.70556L32.2749 2L29.6703 2.78163Z" stroke="#333333" stroke-width="1.5" stroke-miterlimit="10"/>
<path d="M37.4573 23.3901C37.6187 22.7245 37.712 22.0441 37.7358 21.3596C37.7358 21.3571 37.728 21.367 37.728 21.367C37.8028 16.7685 34.358 10.6783 29.8461 8.94958H27.3118H24.7761C20.2639 10.6779 16.8191 16.7681 16.8943 21.3666C16.8943 21.3666 16.8865 21.3567 16.8865 21.3596C16.8865 22.5215 17.3827 23.8667 17.3827 25.3307C17.3174 26.7342 17.1673 28.1325 16.9334 29.5179C16.8806 29.6915 16.8768 29.8763 16.9224 30.0519C16.9679 30.2275 17.0611 30.3871 17.1917 30.513C17.3222 30.639 17.4851 30.7265 17.6622 30.7658C17.8393 30.8051 18.0238 30.7947 18.1954 30.7357C21.1929 30.2122 21.4376 30.1815 24.9293 30.5315C25.7122 30.7029 26.5111 30.7901 27.3126 30.7917V30.7917C28.1142 30.79 28.9132 30.7027 29.6963 30.5315C33.188 30.1828 33.4326 30.2138 36.4302 30.7357C36.6018 30.7947 36.7863 30.8051 36.9634 30.7658C37.1405 30.7265 37.3034 30.639 37.4339 30.513C37.5644 30.3871 37.6576 30.2275 37.7032 30.0519C37.7488 29.8763 37.7449 29.6915 37.6921 29.5179C37.1502 26.0871 37.1502 24.9947 37.4573 23.3901Z" stroke="#333333" stroke-width="1.5" stroke-miterlimit="10"/>
<path d="M30.2841 17.1866C30.2749 16.4027 29.957 15.654 29.3994 15.1029C28.8418 14.5518 28.0894 14.2427 27.3054 14.2427C26.5215 14.2427 25.7692 14.5518 25.2116 15.1029C24.654 15.654 24.3361 16.4027 24.3269 17.1866C24.3269 18.8311 25.8163 19.4204 27.3053 20.1649C28.7942 20.9094 30.2841 21.4983 30.2841 23.1433C30.2749 23.9272 29.957 24.6759 29.3994 25.227C28.8418 25.7781 28.0894 26.0872 27.3054 26.0872C26.5215 26.0872 25.7692 25.7781 25.2116 25.227C24.654 24.6759 24.3361 23.9272 24.3269 23.1433" stroke="#333333" stroke-width="1.5" stroke-miterlimit="10"/>
<path d="M27.3065 14.2081V12.7188" stroke="#333333" stroke-width="1.5" stroke-miterlimit="10"/>
<path d="M27.3065 26.1215V27.6108" stroke="#333333" stroke-width="1.5" stroke-miterlimit="10"/>
<rect x="33.5674" y="19.0322" width="8.13183" height="13.136" transform="rotate(-2.47643 33.5674 19.0322)" fill="white"/>
<path d="M41.838 24.4593C41.807 24.2749 41.7614 24.0932 41.7016 23.916L43.0672 22.8034L41.4639 20.8361L40.1009 21.9467C39.7754 21.7604 39.4225 21.6267 39.0552 21.5508L38.7741 19.8134L36.2692 20.2178L36.5499 21.9555C36.225 22.1431 35.9319 22.381 35.6817 22.6606L34.0385 22.0358L33.1362 24.4075L34.7824 25.0333C34.7814 25.2205 34.7953 25.4074 34.8239 25.5923C34.8551 25.7767 34.9007 25.9584 34.9603 26.1357L33.5954 27.2483L35.1983 29.2153L36.5609 28.1049C36.8865 28.2915 37.2397 28.4251 37.6073 28.5009L37.8878 30.2383L40.393 29.8336L40.1125 28.0962C40.4374 27.9085 40.7304 27.6704 40.9805 27.3908L42.6236 28.0161L43.5256 25.6441L41.8798 25.0181C41.8806 24.831 41.8666 24.6442 41.838 24.4593Z" stroke="#333333" stroke-width="1.5" stroke-miterlimit="10"/>
<path d="M39.9638 24.7621C40.016 25.085 39.9711 25.4162 39.8351 25.7136C39.6991 26.011 39.478 26.2614 39.1996 26.4332C38.9213 26.6049 38.5982 26.6903 38.2714 26.6785C37.9445 26.6666 37.6285 26.5581 37.3633 26.3667C37.0981 26.1753 36.8956 25.9095 36.7815 25.603C36.6673 25.2965 36.6466 24.963 36.722 24.6447C36.7974 24.3265 36.9655 24.0377 37.2049 23.8149C37.4444 23.5922 37.7445 23.4454 38.0674 23.3933C38.5004 23.3235 38.9433 23.4285 39.2989 23.6852C39.6545 23.9419 39.8937 24.3292 39.9638 24.7621V24.7621Z" stroke="#333333" stroke-width="1.5" stroke-miterlimit="10"/>
<path d="M51.9825 15.6562C52.0277 15.4022 52.0526 15.145 52.0571 14.8871L54.3467 14.0744L53.1753 10.7757L50.89 11.5871C50.5535 11.1942 50.1568 10.857 49.7149 10.5881L50.1546 8.2007L46.7131 7.5655L46.2726 9.95317C45.7635 10.0462 45.2725 10.2196 44.8179 10.4669L42.9726 8.89385L40.7016 11.5569L42.5502 13.1327C42.4622 13.3754 42.3936 13.6247 42.3451 13.8782C42.3002 14.1322 42.2753 14.3893 42.2705 14.6473L39.9818 15.4603L41.1528 18.7584L43.4376 17.9473C43.7742 18.3405 44.1711 18.6778 44.6135 18.9466L44.1729 21.3336L47.615 21.9687L48.0557 19.5816C48.5648 19.4883 49.0557 19.3147 49.5103 19.0673L51.3551 20.6411L53.626 17.9774L51.778 16.4015C51.8656 16.1588 51.934 15.9096 51.9825 15.6562Z" stroke="#333333" stroke-width="1.5" stroke-miterlimit="10"/>
<path d="M49.4075 15.1813C49.3256 15.625 49.1139 16.0344 48.7994 16.3578C48.4848 16.6812 48.0816 16.904 47.6404 16.9982C47.1992 17.0923 46.7399 17.0536 46.3207 16.8867C45.9016 16.7199 45.5413 16.4326 45.2855 16.061C45.0297 15.6894 44.8897 15.2503 44.8834 14.7992C44.8771 14.3481 45.0048 13.9053 45.2502 13.5267C45.4956 13.1482 45.8478 12.8509 46.2621 12.6724C46.6764 12.494 47.1343 12.4424 47.578 12.5243C48.1728 12.6343 48.6996 12.9759 49.0426 13.4741C49.3856 13.9724 49.5169 14.5864 49.4075 15.1813V15.1813Z" stroke="#333333" stroke-width="1.5" stroke-miterlimit="10"/>
<path fill-rule="evenodd" clip-rule="evenodd" d="M15.3555 9.46749C15.1451 7.98059 15.3759 6.57689 15.9167 5.48155C15.9884 5.33618 16.1534 5.26114 16.3153 5.29833C18.5843 5.82003 20.4217 7.69 20.7619 10.1106C20.9413 11.3588 20.6928 12.5689 20.1346 13.5891C20.0213 13.7961 19.7002 13.7238 19.6808 13.488C19.5074 11.3872 18.5505 9.26051 17.4127 8.36962C18.5051 9.2278 19.1696 11.8174 19.126 13.9977C19.1205 14.2766 18.8256 14.459 18.5643 14.3433C16.9844 13.6435 15.6828 11.7832 15.3555 9.46749Z" fill="#33B399"/>
<path fill-rule="evenodd" clip-rule="evenodd" d="M15.2362 15.4351C14.3939 15.1081 13.7232 14.572 13.3045 13.9625C13.2489 13.8817 13.2573 13.7722 13.3238 13.6974C14.256 12.6494 15.7715 12.2276 17.1421 12.7612C17.85 13.0342 18.4137 13.5227 18.7879 14.1192C18.8639 14.2402 18.7327 14.389 18.6032 14.3297C17.449 13.8021 16.0541 13.6818 15.2559 14.0217C16.0237 13.6962 17.5771 14.1079 18.7101 14.7739C18.8551 14.859 18.8654 15.069 18.7288 15.1733C17.9029 15.8038 16.5479 15.9446 15.2362 15.4351Z" fill="#33B399"/>
</svg>
