<svg width="40" height="40" viewBox="0 0 40 40" fill="none" xmlns="http://www.w3.org/2000/svg">
<path d="M33.3333 11.6666H6.66665C4.8257 11.6666 3.33331 13.159 3.33331 15V31.6666C3.33331 33.5076 4.8257 35 6.66665 35H33.3333C35.1743 35 36.6666 33.5076 36.6666 31.6666V15C36.6666 13.159 35.1743 11.6666 33.3333 11.6666Z" stroke="#3C64B1" stroke-width="2" stroke-linecap="round" stroke-linejoin="round"/>
<path d="M26.6666 35V8.33333C26.6666 7.44928 26.3155 6.60143 25.6903 5.97631C25.0652 5.35119 24.2174 5 23.3333 5H16.6666C15.7826 5 14.9347 5.35119 14.3096 5.97631C13.6845 6.60143 13.3333 7.44928 13.3333 8.33333V35" stroke="#3C64B1" stroke-width="2" stroke-linecap="round" stroke-linejoin="round"/>
</svg>
