<svg width="49" height="48" viewBox="0 0 49 48" fill="none" xmlns="http://www.w3.org/2000/svg">
<path d="M25.4081 40.8282H22.3412V43.8951H25.4081V40.8282Z" stroke="#333333" stroke-miterlimit="10"/>
<path d="M31.5422 40.8282H28.4753V43.8951H31.5422V40.8282Z" stroke="#333333" stroke-miterlimit="10"/>
<path d="M37.8136 16.3311H34.7467V19.3979H37.8136V16.3311Z" stroke="#333333" stroke-miterlimit="10"/>
<path d="M43.9476 16.3311H40.8807V19.3979H43.9476V16.3311Z" stroke="#333333" stroke-miterlimit="10"/>
<path d="M7.14502 22.4648H4.07812V25.5317H7.14502V22.4648Z" stroke="#333333" stroke-miterlimit="10"/>
<path d="M13.2787 22.4648H10.2118V25.5317H13.2787V22.4648Z" stroke="#333333" stroke-miterlimit="10"/>
<path d="M25.5071 22.2922H22.4402V25.3591H25.5071V22.2922Z" stroke="#333333" stroke-miterlimit="10"/>
<path d="M19.4125 22.4648H16.3456V25.5317H19.4125V22.4648Z" stroke="#333333" stroke-miterlimit="10"/>
<path d="M31.6407 22.2922H28.5739V25.3591H31.6407V22.2922Z" stroke="#333333" stroke-miterlimit="10"/>
<path d="M43.9476 22.4648H40.8807V25.5317H43.9476V22.4648Z" stroke="#333333" stroke-miterlimit="10"/>
<path d="M7.14502 28.5987H4.07812V31.6656H7.14502V28.5987Z" stroke="#333333" stroke-miterlimit="10"/>
<path d="M13.2787 28.5987H10.2118V31.6656H13.2787V28.5987Z" stroke="#333333" stroke-miterlimit="10"/>
<path d="M19.4125 28.5987H16.3456V31.6656H19.4125V28.5987Z" stroke="#333333" stroke-miterlimit="10"/>
<path d="M25.5461 28.5987H22.4792V31.6656H25.5461V28.5987Z" stroke="#333333" stroke-miterlimit="10"/>
<path d="M31.6802 28.5987H28.6133V31.6656H31.6802V28.5987Z" stroke="#333333" stroke-miterlimit="10"/>
<path d="M37.6959 22.2922H34.629V25.3591H37.6959V22.2922Z" stroke="#333333" stroke-miterlimit="10"/>
<path d="M43.9476 28.5987H40.8807V31.6656H43.9476V28.5987Z" stroke="#333333" stroke-miterlimit="10"/>
<path d="M7.14502 34.7325H4.07812V37.7994H7.14502V34.7325Z" stroke="#333333" stroke-miterlimit="10"/>
<path d="M19.4126 34.8326H16.3457V37.8995H19.4126V34.8326Z" stroke="#333333" stroke-miterlimit="10"/>
<path d="M13.2787 34.7325H10.2118V37.7994H13.2787V34.7325Z" stroke="#333333" stroke-miterlimit="10"/>
<path d="M25.5463 34.8326H22.4794V37.8995H25.5463V34.8326Z" stroke="#333333" stroke-miterlimit="10"/>
<path d="M31.6802 34.7325H28.6133V37.7994H31.6802V34.7325Z" stroke="#333333" stroke-miterlimit="10"/>
<path d="M37.8136 34.7325H34.7467V37.7994H37.8136V34.7325Z" stroke="#333333" stroke-miterlimit="10"/>
<path d="M43.9476 34.7325H40.8807V37.7994H43.9476V34.7325Z" stroke="#333333" stroke-miterlimit="10"/>
<path d="M7.14502 40.8662H4.07812V43.9331H7.14502V40.8662Z" stroke="#333333" stroke-miterlimit="10"/>
<path d="M13.2787 40.8662H10.2118V43.9331H13.2787V40.8662Z" stroke="#333333" stroke-miterlimit="10"/>
<path d="M19.4125 40.8662H16.3456V43.9331H19.4125V40.8662Z" stroke="#333333" stroke-miterlimit="10"/>
<path d="M34.629 31.7967L37.6959 28.7298" stroke="#333333" stroke-miterlimit="10"/>
<path d="M34.629 28.7298L37.6959 31.7967" stroke="#333333" stroke-miterlimit="10"/>
<path d="M17.3678 17.8646H18.3901" stroke="#333333" stroke-miterlimit="10"/>
<path d="M11.2341 17.8646H12.2564" stroke="#333333" stroke-miterlimit="10"/>
<path d="M5.10034 17.8646H6.12264" stroke="#333333" stroke-miterlimit="10"/>
<path d="M23.626 17.7021H24.6483" stroke="#333333" stroke-miterlimit="10"/>
<path d="M29.6217 17.7021H30.644" stroke="#333333" stroke-miterlimit="10"/>
<path d="M35.7693 42.3996H36.7916" stroke="#333333" stroke-miterlimit="10"/>
<path d="M41.903 42.3996H42.9253" stroke="#333333" stroke-miterlimit="10"/>
<path d="M5.10022 10.2007C4.89882 10.2008 4.69928 10.1612 4.5132 10.0841C4.32711 10.0071 4.1581 9.89413 4.01569 9.75172C3.87328 9.60931 3.76028 9.44022 3.68325 9.25413C3.60621 9.06804 3.56668 8.86863 3.56677 8.66723V2.53345C3.56677 2.12675 3.72828 1.7367 4.01586 1.44913C4.30344 1.16155 4.69352 1 5.10022 1V1C5.50691 1 5.89684 1.16155 6.18441 1.44913C6.47199 1.7367 6.63367 2.12675 6.63367 2.53345V8.66723C6.63367 9.07393 6.47199 9.46393 6.18441 9.75151C5.89684 10.0391 5.50691 10.2007 5.10022 10.2007V10.2007Z" stroke="#333333" stroke-miterlimit="10"/>
<path d="M12.7676 10.2007C12.5662 10.2008 12.3666 10.1612 12.1806 10.0841C11.9945 10.0071 11.8255 9.89413 11.6831 9.75172C11.5406 9.60931 11.4276 9.44022 11.3506 9.25413C11.2736 9.06804 11.234 8.86863 11.2341 8.66723V2.53345C11.2341 2.12675 11.3956 1.7367 11.6832 1.44913C11.9708 1.16155 12.3609 1 12.7676 1V1C13.1743 1 13.5642 1.16155 13.8518 1.44913C14.1393 1.7367 14.301 2.12675 14.301 2.53345V8.66723C14.301 9.07393 14.1393 9.46393 13.8518 9.75151C13.5642 10.0391 13.1743 10.2007 12.7676 10.2007V10.2007Z" stroke="#333333" stroke-miterlimit="10"/>
<path d="M20.4349 10.2007C20.2335 10.2008 20.034 10.1612 19.8479 10.0841C19.6618 10.0071 19.4928 9.89413 19.3504 9.75172C19.208 9.60931 19.095 9.44022 19.018 9.25413C18.9409 9.06804 18.9014 8.86863 18.9015 8.66723V2.53345C18.9015 2.12675 19.063 1.7367 19.3506 1.44913C19.6382 1.16155 20.0282 1 20.4349 1V1C20.8416 1 21.2316 1.16155 21.5191 1.44913C21.8067 1.7367 21.9684 2.12675 21.9684 2.53345V8.66723C21.9684 9.07393 21.8067 9.46393 21.5191 9.75151C21.2316 10.0391 20.8416 10.2007 20.4349 10.2007V10.2007Z" stroke="#333333" stroke-miterlimit="10"/>
<path d="M28.1021 10.2007C27.9007 10.2008 27.7011 10.1612 27.515 10.0841C27.3289 10.0071 27.1599 9.89413 27.0175 9.75172C26.8751 9.60931 26.7621 9.44022 26.6851 9.25413C26.608 9.06804 26.5685 8.86863 26.5686 8.66723V2.53345C26.5686 2.12675 26.7301 1.7367 27.0177 1.44913C27.3053 1.16155 27.6954 1 28.1021 1V1C28.5087 1 28.8987 1.16155 29.1862 1.44913C29.4738 1.7367 29.6355 2.12675 29.6355 2.53345V8.66723C29.6355 9.07393 29.4738 9.46393 29.1862 9.75151C28.8987 10.0391 28.5087 10.2007 28.1021 10.2007V10.2007Z" stroke="#333333" stroke-miterlimit="10"/>
<path d="M35.7693 10.2007C35.5679 10.2008 35.3684 10.1612 35.1823 10.0841C34.9962 10.0071 34.8272 9.89413 34.6848 9.75172C34.5423 9.60931 34.4293 9.44022 34.3523 9.25413C34.2753 9.06804 34.2358 8.86863 34.2358 8.66723V2.53345C34.2358 2.12675 34.3973 1.7367 34.6849 1.44913C34.9725 1.16155 35.3626 1 35.7693 1V1C36.176 1 36.5659 1.16155 36.8535 1.44913C37.1411 1.7367 37.3027 2.12675 37.3027 2.53345V8.66723C37.3027 9.07393 37.1411 9.46393 36.8535 9.75151C36.5659 10.0391 36.176 10.2007 35.7693 10.2007V10.2007Z" stroke="#333333" stroke-miterlimit="10"/>
<path d="M43.4364 10.2007C43.235 10.2008 43.0355 10.1612 42.8494 10.0841C42.6633 10.0071 42.4943 9.89413 42.3519 9.75172C42.2095 9.60931 42.0965 9.44022 42.0194 9.25413C41.9424 9.06804 41.9029 8.86863 41.903 8.66723V2.53345C41.903 2.12675 42.0645 1.7367 42.352 1.44913C42.6396 1.16155 43.0297 1 43.4364 1V1C43.8431 1 44.233 1.16155 44.5206 1.44913C44.8082 1.7367 44.9698 2.12675 44.9698 2.53345V8.66723C44.9698 9.07393 44.8082 9.46393 44.5206 9.75151C44.233 10.0391 43.8431 10.2007 43.4364 10.2007V10.2007Z" stroke="#333333" stroke-miterlimit="10"/>
<path d="M48.0368 13.2642H0.5V47H48.0368V13.2642Z" stroke="#333333" stroke-miterlimit="10"/>
<path d="M8.16724 5.59686H9.70068" stroke="#333333" stroke-miterlimit="10"/>
<path d="M15.8344 5.59686H17.3678" stroke="#333333" stroke-miterlimit="10"/>
<path d="M23.5017 5.59686H25.0352" stroke="#333333" stroke-miterlimit="10"/>
<path d="M31.1689 5.59686H32.7024" stroke="#333333" stroke-miterlimit="10"/>
<path d="M38.8361 5.59686H40.3695" stroke="#333333" stroke-miterlimit="10"/>
<path d="M46.5034 5.59686H48.0369V13.2675H0.5V5.60027H2.03345" stroke="#333333" stroke-miterlimit="10"/>
</svg>
