<svg width="54" height="38" viewBox="0 0 54 38" fill="none" xmlns="http://www.w3.org/2000/svg">
<path d="M33.0269 32.1934C33.0269 32.1934 32.6049 33.8789 31.3404 33.8789H22.9143C21.6498 33.8789 21.2281 32.1934 21.2281 32.1934H1V35.2546C1 36.3568 2.24521 37.25 3.78177 37.25H50.6155C52.1521 37.25 53.2565 36.2189 53.2565 35.1175V32.1934H33.0269Z" stroke="#333333" stroke-miterlimit="10"/>
<path d="M6.05505 29.665V4.37952H48.1975V29.665" stroke="#333333" stroke-miterlimit="10"/>
<path d="M6.05505 28.8215H48.1975" stroke="#333333" stroke-miterlimit="10"/>
<path d="M5.21216 34.7217H6.89771" stroke="#333333" stroke-miterlimit="10"/>
<path d="M8.58423 34.7217H10.2698" stroke="#333333" stroke-miterlimit="10"/>
<path d="M2.68416 30.5077V5.04888C2.67306 4.50027 2.77583 3.9553 2.98601 3.44844C3.19619 2.94157 3.50924 2.48382 3.90531 2.10406C4.30137 1.72429 4.7719 1.43074 5.28714 1.24204C5.80239 1.05333 6.35115 0.973551 6.89881 1.00769H47.355C47.9027 0.973551 48.4514 1.05333 48.9667 1.24204C49.4819 1.43074 49.9525 1.72429 50.3485 2.10406C50.7446 2.48382 51.0573 2.94157 51.2675 3.44844C51.4776 3.9553 51.5804 4.50027 51.5693 5.04888V30.5077" stroke="#333333" stroke-miterlimit="10"/>
<path d="M10.2697 15.3364L17.8554 7.75067" stroke="#333333" stroke-miterlimit="10"/>
<path d="M10.2697 23.7641L27.5477 6.48608" stroke="#333333" stroke-miterlimit="10"/>
<path d="M36.8188 14.0718L43.9828 6.90784" stroke="#333333" stroke-miterlimit="10"/>
<path d="M31.3403 26.2931L44.8262 12.8073" stroke="#333333" stroke-miterlimit="10"/>
</svg>
