<svg width="114" height="80" viewBox="0 0 114 80" fill="none" xmlns="http://www.w3.org/2000/svg">
<g id="notification">
<path id="Shape" fill-rule="evenodd" clip-rule="evenodd" d="M15.2025 80.0001H79.4527C87.8348 80.0001 94.6541 73.1749 94.6541 64.7844V24.1879C94.6541 15.7984 87.8348 8.97217 79.4527 8.97217H15.2025C6.82035 8.97217 0 15.7984 0 24.1879V64.7844C0 73.1749 6.8193 80.0001 15.2025 80.0001ZM3.07688 23.602C3.07688 17.4727 8.05607 12.4867 14.177 12.4867H80.4769C86.5978 12.4867 91.577 17.4727 91.577 23.602V65.5151C91.577 71.6444 86.5978 76.6315 80.4769 76.6315H14.177C8.05607 76.6315 3.07688 71.6444 3.07688 65.5151V23.602Z" fill="#272629"/>
<g id="Group 11">
<ellipse id="Oval" cx="97.4204" cy="16.4486" rx="16.3738" ry="16.4486" fill="#2FEAC5"/>
<g id="Group 10">
<path id="Fill 2" fill-rule="evenodd" clip-rule="evenodd" d="M102.828 14.199C104.043 10.6521 104.137 7.10183 103.326 4.16188C103.219 3.77174 102.849 3.5102 102.435 3.52528C96.6262 3.7379 91.2419 7.45928 89.2699 13.2347C88.2433 16.2107 88.2839 19.2946 89.173 22.0585C89.3534 22.6195 90.1747 22.5929 90.3333 22.0239C91.7458 16.9543 95.0917 12.1897 98.3003 10.5401C95.2185 12.1308 92.372 18.168 91.4539 23.5346C91.3363 24.221 91.9738 24.8069 92.6688 24.646C96.8716 23.6728 100.938 19.7232 102.828 14.199Z" fill="#33B399"/>
<path id="Fill 2_2" fill-rule="evenodd" clip-rule="evenodd" d="M100.316 28.8874C102.535 28.4816 104.431 27.4822 105.744 26.1847C105.919 26.0126 105.949 25.7402 105.822 25.5255C104.029 22.5178 100.511 20.7712 96.8994 21.4353C95.0354 21.772 93.4235 22.7047 92.2256 23.9913C91.9824 24.2525 92.2341 24.6787 92.5796 24.5944C95.6576 23.8431 99.1345 24.204 100.932 25.4126C99.2022 24.2536 95.1998 24.5328 92.1086 25.6332C91.7131 25.7738 91.5891 26.2839 91.875 26.6037C93.6037 28.5379 96.8599 29.5201 100.316 28.8874Z" fill="#33B399"/>
</g>
</g>
<g id="Group 9">
<path id="Path" d="M15.4168 26.1989C25.5094 36.0308 35.602 45.8617 45.6946 55.6935C47.576 57.5258 50.4634 54.6457 48.5792 52.8097C38.4867 42.9788 28.3941 33.147 18.3015 23.3161C16.4201 21.4829 13.5327 24.3639 15.4168 26.1989Z" fill="#272629"/>
<path id="Path_2" d="M48.5217 55.6933C58.6145 45.8624 68.7072 36.0306 78.8 26.1997C80.6832 24.3647 77.7976 21.4827 75.9153 23.3159C65.8225 33.1468 55.7298 42.9786 45.637 52.8095C43.7538 54.6445 46.6394 57.5264 48.5217 55.6933Z" fill="#272629"/>
<path id="Path_3" d="M78.7846 62.7838C72.0487 56.4114 65.3118 50.0399 58.5758 43.6675C56.6653 41.8608 53.7672 44.7414 55.6824 46.5536C62.4184 52.9261 69.1553 59.2976 75.8912 65.67C77.8017 67.4767 80.6998 64.5951 78.7846 62.7838Z" fill="#272629"/>
<path id="Path_4" d="M18.4553 65.6693C25.1914 59.2971 31.9284 52.9259 38.6645 46.5538C40.5788 44.7425 37.6825 41.8602 35.7711 43.6677C29.0349 50.0398 22.2979 56.411 15.5618 62.7832C13.6475 64.5945 16.5438 67.4777 18.4553 65.6693Z" fill="#272629"/>
</g>
</g>
</svg>
