<svg width="54" height="38" viewBox="0 0 54 38" fill="none" xmlns="http://www.w3.org/2000/svg">
<path d="M31.2915 24.8993C31.7053 25.063 32.0613 25.3457 32.3145 25.7117C32.5676 26.0777 32.7065 26.5106 32.7136 26.9556C32.7208 27.4006 32.5958 27.8376 32.3545 28.2115C32.1132 28.5855 31.7663 28.8793 31.3579 29.0561C30.9496 29.233 30.498 29.2849 30.0602 29.2051C29.6224 29.1252 29.2181 28.9172 28.8984 28.6076C28.5788 28.2979 28.3581 27.9005 28.2644 27.4654C28.1706 27.0304 28.208 26.5773 28.3718 26.1635C28.4803 25.8887 28.6419 25.6378 28.8474 25.4255C29.0529 25.2131 29.2983 25.0435 29.5695 24.926C29.8407 24.8086 30.1324 24.7458 30.4278 24.7412C30.7233 24.7366 31.0168 24.7904 31.2915 24.8993V24.8993Z" stroke="#333333" stroke-miterlimit="10"/>
<path d="M32.9428 20.7163C34.5965 21.3824 35.9195 22.6755 36.623 24.3136C37.3266 25.9516 37.3537 27.8016 36.6982 29.4594C36.0426 31.1173 34.7578 32.4485 33.1242 33.1625C31.4907 33.8765 29.641 33.9152 27.979 33.2703C24.5116 31.8992 15.8142 21.2016 15.8142 21.2016C15.8142 21.2016 29.4797 19.3427 32.9428 20.7163Z" stroke="#333333" stroke-miterlimit="10"/>
<path d="M26.875 3.46149V7.15749" stroke="#333333" stroke-miterlimit="10"/>
<path d="M18.8679 4.8725L20.1319 8.3465" stroke="#333333" stroke-miterlimit="10"/>
<path d="M11.8269 8.93848L14.2029 11.7705" stroke="#333333" stroke-miterlimit="10"/>
<path d="M6.60083 15.1665L9.80183 17.0145" stroke="#333333" stroke-miterlimit="10"/>
<path d="M3.81982 22.8065L7.45982 23.4485" stroke="#333333" stroke-miterlimit="10"/>
<path d="M46.2898 30.2955L49.9298 30.9375" stroke="#333333" stroke-miterlimit="10"/>
<path d="M3.81982 30.9375L7.45982 30.2955" stroke="#333333" stroke-miterlimit="10"/>
<path d="M46.2898 23.4485L49.9298 22.8065" stroke="#333333" stroke-miterlimit="10"/>
<path d="M43.948 17.0145L47.149 15.1665" stroke="#333333" stroke-miterlimit="10"/>
<path d="M39.5469 11.7705L41.9229 8.93848" stroke="#333333" stroke-miterlimit="10"/>
<path d="M33.6179 8.3465L34.8819 4.8725" stroke="#333333" stroke-miterlimit="10"/>
<path d="M51.8551 33.6215C52.8911 29.7857 53.0297 25.7628 52.2604 21.8648C51.491 17.9668 49.8342 14.2983 47.4186 11.1437C45.0029 7.9891 41.8933 5.43316 38.3307 3.67407C34.7681 1.91499 30.8484 1 26.8751 1C22.9019 1 18.9819 1.91499 15.4193 3.67407C11.8567 5.43316 8.74704 7.9891 6.33141 11.1437C3.91579 14.2983 2.25896 17.9668 1.48962 21.8648C0.720273 25.7628 0.859175 29.7857 1.89513 33.6215" stroke="#333333" stroke-miterlimit="10"/>
</svg>
