<svg width="53" height="45" viewBox="0 0 53 45" fill="none" xmlns="http://www.w3.org/2000/svg">
<path d="M44.9958 9.87928C48.5189 13.888 50.3448 19.1097 50.0873 24.4404C49.8299 29.771 47.5094 34.7926 43.6165 38.4431C39.7236 42.0937 34.5634 44.0871 29.2273 44.0019C23.8911 43.9166 18.7973 41.7594 15.023 37.9863C11.2487 34.2132 9.08973 29.1201 9.00273 23.7839C8.91574 18.4478 10.9075 13.287 14.5568 9.39292C18.2061 5.4988 23.2269 3.17662 28.5574 2.91746C33.888 2.6583 39.1104 4.48253 43.1202 8.00428" stroke="#333333" stroke-width="1.25" stroke-miterlimit="10"/>
<path d="M42.1754 12.7003C44.9498 15.9602 46.3553 20.1672 46.0975 24.4401C45.8398 28.7131 43.9387 32.7206 40.7925 35.6234C37.6463 38.5261 33.499 40.099 29.2191 40.0126C24.9393 39.9261 20.8588 38.1871 17.8324 35.1597C14.806 32.1323 13.0683 28.0512 12.9833 23.7714C12.8982 19.4915 14.4724 15.3447 17.3762 12.1995C20.28 9.05421 24.2881 7.15444 28.5611 6.89806C32.8342 6.64168 37.0407 8.04852 40.2997 10.824" stroke="#333333" stroke-width="1.25" stroke-miterlimit="10"/>
<path d="M39.3507 15.5274C41.3801 18.0363 42.3695 21.2282 42.1152 24.4451C41.8608 27.662 40.3819 30.6587 37.9834 32.8174C35.5849 34.9762 32.4496 36.1325 29.2238 36.048C25.998 35.9635 22.9275 34.6446 20.6454 32.3632C18.3632 30.0818 17.0433 27.0117 16.9577 23.7859C16.8721 20.5601 18.0274 17.4245 20.1854 15.0253C22.3434 12.6261 25.3396 11.1462 28.5564 10.8908C31.7733 10.6353 34.9654 11.6238 37.475 13.6524" stroke="#333333" stroke-width="1.25" stroke-miterlimit="10"/>
<path d="M36.5143 18.3607C37.7955 20.1136 38.3679 22.2854 38.1173 24.4421C37.8668 26.5988 36.8116 28.5815 35.1627 29.9941C33.5138 31.4066 31.3926 32.1448 29.223 32.0614C27.0534 31.9779 24.9952 31.0789 23.4597 29.5439C21.9242 28.0089 21.0244 25.9509 20.9403 23.7814C20.8561 21.6118 21.5937 19.4904 23.0057 17.841C24.4177 16.1917 26.4001 15.1359 28.5567 14.8846C30.7133 14.6333 32.8853 15.2051 34.6387 16.4856" stroke="#333333" stroke-width="1.25" stroke-miterlimit="10"/>
<path d="M33.1443 21.7314C33.5489 22.5785 33.641 23.5413 33.4042 24.4497C33.1674 25.3581 32.6171 26.1536 31.8505 26.6954C31.0839 27.2372 30.1504 27.4905 29.2151 27.4105C28.2797 27.3305 27.4027 26.9224 26.7392 26.2582C26.0758 25.5941 25.6686 24.7168 25.5895 23.7814C25.5104 22.846 25.7645 21.9127 26.3071 21.1466C26.8497 20.3805 27.6457 19.831 28.5543 19.5951C29.4629 19.3592 30.4257 19.4522 31.2724 19.8576" stroke="#333333" stroke-width="1.25" stroke-miterlimit="10"/>
<path d="M29.5535 23.4464L50.1086 2.89136" stroke="#333333" stroke-width="1.25" stroke-miterlimit="10"/>
<path d="M48.3403 4.65976L48.3695 1" stroke="#333333" stroke-width="1.25" stroke-miterlimit="10"/>
<path d="M46.5104 6.48959L46.5397 2.82983" stroke="#333333" stroke-width="1.25" stroke-miterlimit="10"/>
<path d="M44.6805 8.31955L44.7098 4.65979" stroke="#333333" stroke-width="1.25" stroke-miterlimit="10"/>
<path d="M48.3402 8.31946L44.6805 8.34874" stroke="#333333" stroke-width="1.25" stroke-miterlimit="10"/>
<path d="M50.1701 6.48962L46.5104 6.5189" stroke="#333333" stroke-width="1.25" stroke-miterlimit="10"/>
<path d="M52 4.65979L48.3403 4.68907" stroke="#333333" stroke-width="1.25" stroke-miterlimit="10"/>
<path fill-rule="evenodd" clip-rule="evenodd" d="M5.09577 14.1543C3.65332 14.572 2.46766 15.3581 1.69038 16.3004C1.5872 16.4254 1.5864 16.6067 1.68671 16.7391C3.09289 18.5947 5.55183 19.5038 7.89912 18.8216C9.11106 18.4735 10.1128 17.7506 10.8145 16.8232C10.9569 16.6349 10.7592 16.3718 10.5362 16.4507C8.54904 17.154 6.21702 17.1532 4.93794 16.4808C6.16855 17.1252 8.80287 16.6695 10.7736 15.7357C11.0258 15.6163 11.0712 15.2726 10.8585 15.0817C9.57248 13.9276 7.34204 13.5032 5.09577 14.1543Z" fill="#33B399"/>
<path fill-rule="evenodd" clip-rule="evenodd" d="M10.4898 11.5986C9.84614 10.9644 9.08214 10.5726 8.35462 10.4405C8.25808 10.423 8.16166 10.4756 8.1207 10.5669C7.54711 11.8468 7.78378 13.402 8.83244 14.4333C9.37169 14.9669 10.0484 15.2809 10.7458 15.3776C10.8874 15.3972 10.9693 15.2166 10.8621 15.1227C9.90763 14.2864 9.22597 13.0634 9.20877 12.1961C9.22667 13.0298 10.2391 14.2778 11.3111 15.0382C11.4482 15.1355 11.6439 15.0588 11.683 14.8915C11.9194 13.8797 11.4923 12.5861 10.4898 11.5986Z" fill="#33B399"/>
</svg>
